<?xml version="1.0" encoding="utf-8"?>
<!-- Generator: Adobe Illustrator 16.0.0, SVG Export Plug-In . SVG Version: 6.00 Build 0)  -->
<!DOCTYPE svg PUBLIC "-//W3C//DTD SVG 1.1//EN" "http://www.w3.org/Graphics/SVG/1.1/DTD/svg11.dtd">
<svg version="1.1" id="Layer_2" xmlns="http://www.w3.org/2000/svg" xmlns:xlink="http://www.w3.org/1999/xlink" x="0px" y="0px"
	 width="1071.931px" height="59.233px" viewBox="0 0 1071.931 59.233" enable-background="new 0 0 1071.931 59.233"
	 xml:space="preserve">
<g>
	<g>
		<path fill="#FFFFFF" d="M94.41,19.617c2.095,0,4.134,0,6.227,0c0.081,0.703,0.158,1.383,0.25,2.192
			c1.784-1.861,3.848-2.755,6.335-2.711c2.465,0.043,4.522,0.905,6.128,2.805c0.124-0.104,0.216-0.179,0.304-0.258
			c1.769-1.591,3.861-2.392,6.22-2.521c1.093-0.058,2.182-0.009,3.255,0.245c3.066,0.723,4.88,2.674,5.539,5.714
			c0.164,0.749,0.226,1.535,0.23,2.305c0.022,3.992,0.01,7.984,0.01,11.979c0,0.217,0,0.433,0,0.637
			c-0.459,0.13-5.439,0.171-6.523,0.059c0-0.22,0-0.449,0-0.681c0-3.516,0.003-7.03-0.004-10.548
			c-0.001-0.493-0.027-0.994-0.102-1.48c-0.287-1.888-1.539-2.892-3.444-2.797c-2.235,0.111-3.814,1.645-3.993,3.881
			c-0.023,0.297-0.029,0.597-0.029,0.894c-0.001,3.338-0.001,6.675-0.001,10.011c0,0.234,0,0.471,0,0.735c-2.123,0-4.181,0-6.328,0
			c0-0.233,0-0.464,0-0.696c0-3.594,0.003-7.189-0.004-10.785c-0.002-0.475-0.019-0.959-0.114-1.42
			c-0.372-1.811-1.569-2.713-3.416-2.619c-2.278,0.114-3.875,1.753-4.025,4.134c-0.016,0.258-0.013,0.517-0.013,0.774
			c0,3.277,0,6.556,0,9.833c0,0.237,0,0.477,0,0.703c-0.442,0.134-5.796,0.162-6.503,0.035C94.41,33.257,94.41,26.474,94.41,19.617z
			"/>
		<path fill="#FFFFFF" d="M29.606,47.252c0.919-1.555,1.775-3.003,2.623-4.435c0.794,0.332,1.526,0.687,2.288,0.947
			c1.642,0.562,3.335,0.739,5.047,0.416c2-0.378,3.205-1.774,3.317-3.8c0.034-0.627,0.005-1.258,0.005-1.935
			c-0.11,0.037-0.19,0.046-0.246,0.087c-1.104,0.801-2.347,1.237-3.691,1.389c-1.756,0.199-3.492,0.109-5.173-0.478
			c-2.494-0.868-4.242-2.549-5.186-4.998c-1.1-2.859-1.105-5.766,0.053-8.604c1.369-3.356,3.989-5.294,7.423-6.225
			c1.864-0.505,3.768-0.547,5.676-0.443c2.387,0.132,4.724,0.57,7.009,1.278c0.205,0.063,0.406,0.14,0.651,0.223
			c0,0.219,0,0.414,0,0.607c0,6.155,0,12.312,0,18.47c0,1.059-0.132,2.102-0.396,3.122c-0.745,2.869-2.61,4.696-5.343,5.705
			c-1.777,0.655-3.626,0.848-5.504,0.815c-2.255-0.039-4.48-0.276-6.579-1.176C30.925,47.942,30.301,47.597,29.606,47.252z
			 M42.976,24.79c-0.23-0.074-0.397-0.132-0.568-0.181c-1.106-0.32-2.246-0.363-3.367-0.209c-2.144,0.298-3.665,1.442-4.345,3.552
			c-0.417,1.3-0.436,2.625-0.058,3.933c0.414,1.433,1.29,2.447,2.783,2.824c1.085,0.272,2.171,0.228,3.23-0.118
			c1.292-0.42,2.043-1.32,2.23-2.671c0.054-0.394,0.088-0.789,0.091-1.187c0.01-1.768,0.003-3.533,0.003-5.3
			C42.976,25.237,42.976,25.04,42.976,24.79z"/>
		<path fill="#FFFFFF" d="M67.216,40.069c0-0.271,0-0.506,0-0.741c0-3.556,0.004-7.109-0.004-10.665
			c0-0.455-0.012-0.919-0.101-1.362c-0.364-1.796-1.726-2.831-3.557-2.747c-2.405,0.112-4.052,1.726-4.146,4.132
			c-0.056,1.428-0.029,2.858-0.032,4.289c-0.004,2.145-0.001,4.289-0.001,6.435c0,0.216,0,0.43,0,0.67c-2.188,0-4.305,0-6.419,0
			c-0.123-0.445-0.148-28.442-0.023-29.134c2.091,0,4.188,0,6.359,0c0.051,1.738,0.015,3.477,0.022,5.216
			c0.007,1.738,0.001,3.476,0.001,5.312c0.167-0.121,0.248-0.167,0.313-0.23c1.374-1.304,3.071-1.876,4.9-2.079
			c1.408-0.158,2.821-0.08,4.181,0.378c2.615,0.879,4.213,2.683,4.756,5.386c0.148,0.735,0.23,1.494,0.235,2.245
			c0.022,4.091,0.01,8.183,0.01,12.274c0,0.195,0,0.39,0,0.623C71.542,40.069,69.425,40.069,67.216,40.069z"/>
		<path fill="#FFFFFF" d="M142.587,18.888c2-0.028,3.915,0.357,5.674,1.328c3.618,1.992,5.526,5.081,5.718,9.2
			c0.249,5.324-3.307,9.931-8.626,11.099c-2.503,0.549-4.993,0.435-7.365-0.565c-4.067-1.712-6.438-4.783-6.792-9.205
			c-0.352-4.396,1.388-7.857,5.14-10.224C138.156,19.372,140.208,18.888,142.587,18.888z M142.569,24.341
			c-2.218,0.008-3.931,1.18-4.717,3.262c-0.645,1.707-0.564,3.396,0.259,5.021c0.984,1.943,2.629,2.818,4.768,2.715
			c2.056-0.099,3.508-1.161,4.323-3.043c0.596-1.378,0.644-2.812,0.243-4.257C146.807,25.744,144.938,24.334,142.569,24.341z"/>
		<path fill="#FFFFFF" d="M198.018,31.694c-5.027,0-10.027,0-15.048,0c-0.088,0.565,0.086,1.029,0.307,1.473
			c0.573,1.139,1.501,1.879,2.685,2.312c0.89,0.324,1.818,0.377,2.756,0.395c2.113,0.04,4.029-0.576,5.81-1.677
			c0.134-0.081,0.27-0.159,0.461-0.274c0.879,1.303,1.751,2.596,2.669,3.956c-0.627,0.401-1.197,0.831-1.822,1.153
			c-2.75,1.421-5.685,1.955-8.764,1.732c-1.578-0.115-3.1-0.453-4.542-1.119c-3.059-1.412-4.962-3.765-5.668-7.056
			c-0.622-2.896-0.36-5.705,1.086-8.322c1.67-3.021,4.295-4.717,7.676-5.245c1.785-0.277,3.575-0.229,5.312,0.3
			c3.244,0.988,5.336,3.171,6.421,6.353c0.637,1.87,0.801,3.802,0.733,5.761C198.087,31.49,198.06,31.545,198.018,31.694z
			 M191.939,27.66c-0.042-0.322-0.05-0.579-0.111-0.821c-0.25-0.984-0.804-1.777-1.663-2.312c-1.68-1.048-3.422-1.03-5.149-0.133
			c-1.054,0.548-1.732,1.434-2.018,2.598c-0.05,0.204-0.052,0.417-0.081,0.668C185.938,27.66,188.887,27.66,191.939,27.66z"/>
		<path fill="#FFFFFF" d="M90.367,24.504c-1.822,0-3.587,0-5.396,0c-0.023,0.177-0.06,0.326-0.06,0.476
			c-0.004,2.583-0.017,5.166,0.01,7.75c0.005,0.525,0.101,1.072,0.268,1.571c0.302,0.898,0.99,1.354,1.936,1.423
			c0.894,0.066,1.739-0.086,2.525-0.533c0.271-0.154,0.546-0.303,0.865-0.479c0.686,1.409,1.351,2.779,2.029,4.178
			c-0.095,0.082-0.174,0.172-0.269,0.231c-2.692,1.721-5.617,2.146-8.687,1.396c-2.76-0.677-4.406-2.502-4.929-5.289
			c-0.167-0.893-0.25-1.812-0.264-2.721c-0.036-2.425-0.012-4.847-0.012-7.271c0-0.214,0-0.43,0-0.721c-1.132,0-2.212,0-3.33,0
			c0-1.655,0-3.236,0-4.904c1.079,0,2.158,0,3.322,0c0.02-2.119-0.002-4.153,0.013-6.229c2.176,0,4.308,0,6.518,0
			c0,2.065,0,4.101,0,6.196c1.854,0,3.635,0,5.46,0C90.367,21.234,90.367,22.83,90.367,24.504z"/>
		<path fill="#FFFFFF" d="M168.309,40.09c-2.09,0-4.131,0-6.195,0c-2.983-6.802-5.961-13.597-8.943-20.397
			c0.479-0.125,6.208-0.165,7.23-0.056c1.648,4.398,3.308,8.828,4.969,13.256c0.045-0.002,0.091-0.002,0.136-0.002
			c1.599-4.427,3.198-8.851,4.797-13.276c2.372,0,4.691,0,7.115,0C174.373,26.483,171.334,33.285,168.309,40.09z"/>
		<path fill="#FFFFFF" d="M17.166,19.452c-0.349,1.86-0.687,3.666-1.035,5.525c-0.231-0.026-0.421-0.049-0.611-0.071
			c-0.911-0.104-1.819-0.137-2.727,0.046c-2.209,0.449-3.66,2.105-3.801,4.357c-0.016,0.258-0.016,0.516-0.016,0.771
			c0,3.1,0,6.197,0,9.294c0,0.216,0,0.431,0,0.688c-2.177,0-4.31,0-6.445,0C2.42,39.646,2.383,20.516,2.492,19.68
			c0.46-0.118,5.59-0.134,6.196-0.008c0.075,0.761,0.15,1.538,0.236,2.427c1.323-1.38,2.661-2.551,4.535-2.812
			C14.663,19.121,15.867,19.106,17.166,19.452z"/>
		<path fill="#FFFFFF" d="M18.921,40.069c0-6.814,0-13.596,0-20.372c0.424-0.132,5.484-0.178,6.403-0.062
			c0.129,0.415,0.186,19.22,0.062,20.384C24.951,40.134,20.2,40.179,18.921,40.069z"/>
		<path fill="#FFFFFF" d="M22.154,17.271c-0.332-0.049-0.67-0.068-0.994-0.148c-1.608-0.392-2.534-1.595-2.504-3.229
			c0.028-1.56,1.042-2.743,2.629-3.087c0.736-0.161,1.456-0.126,2.168,0.115c1.545,0.52,2.404,1.894,2.202,3.517
			c-0.186,1.502-1.399,2.644-2.963,2.78c-0.177,0.016-0.356,0.003-0.535,0.003C22.158,17.237,22.157,17.254,22.154,17.271z"/>
	</g>
	<g>
		<path fill="#FFFFFF" d="M219.563,26.819c-0.679,0.572-1.347,1.133-2.013,1.695c-1.177,0.992-2.35,1.986-3.533,2.973
			c-0.095,0.08-0.244,0.135-0.369,0.135c-1.807,0.009-3.615,0.016-5.422,0.003c-1.805-0.011-3.081-1.312-3.081-3.121
			c0.001-4.201,0.009-8.402,0.007-12.604c0-1.038,0.377-1.877,1.181-2.549c4.338-3.635,8.667-7.281,13-10.921
			c0.074-0.063,0.153-0.121,0.242-0.19c0.805,0.675,1.604,1.346,2.399,2.016c3.602,3.03,7.196,6.065,10.807,9.086
			c0.804,0.671,1.199,1.493,1.198,2.538c-0.001,4.21,0.011,8.421,0.016,12.633c0.002,1.78-1.283,3.098-3.062,3.113
			c-1.828,0.016-3.655,0.007-5.482-0.003c-0.132-0.002-0.286-0.077-0.39-0.164c-1.739-1.464-3.473-2.937-5.208-4.405
			C219.763,26.978,219.67,26.905,219.563,26.819z M219.568,6.807c-0.423,0.355-0.818,0.688-1.212,1.019
			c-3.171,2.663-6.341,5.327-9.504,7.999c-0.102,0.087-0.177,0.26-0.181,0.396c-0.023,0.764-0.026,1.529-0.026,2.294
			c-0.002,3.089-0.001,6.178,0,9.268c0,0.104,0.01,0.21,0.015,0.312c0.056,0.014,0.084,0.025,0.112,0.025
			c1.222,0.001,2.444,0.006,3.666-0.005c0.113-0.001,0.245-0.073,0.336-0.15c1.688-1.418,3.372-2.841,5.056-4.262
			c0.575-0.484,1.153-0.969,1.742-1.465c0.113,0.095,0.213,0.173,0.311,0.255c2.136,1.81,4.274,3.618,6.408,5.432
			c0.158,0.135,0.314,0.205,0.531,0.204c1.113-0.012,2.225-0.005,3.338-0.005c0.105,0,0.21,0,0.34,0c0-0.148,0-0.255,0-0.363
			c-0.003-1.301-0.009-2.601-0.009-3.902c-0.001-2.535-0.003-5.066,0.004-7.6c0-0.198-0.06-0.323-0.211-0.45
			c-2.695-2.258-5.383-4.521-8.074-6.783C221.336,8.289,220.461,7.557,219.568,6.807z"/>
	</g>
</g>
<g>
	<path fill="#FFFFFF" d="M393.92,13.718c7.858-4.732,15.589-1.548,19.205,3.084c4.114,5.271,4.166,12.57,0.174,17.752
		c-3.646,4.734-11.468,8-19.395,3.271c0,0.96,0,1.839,0,2.719c0,1.533,0.015,3.068-0.003,4.604
		c-0.022,1.961-1.338,3.365-3.155,3.391c-1.808,0.025-3.235-1.473-3.235-3.428c-0.004-9.973-0.001-19.943-0.001-29.916
		c0-2.138,0.799-3.297,2.558-3.717C391.662,11.099,393.044,11.9,393.92,13.718z M401.84,17.649c-4.476-0.009-8.027,3.57-8.042,8.103
		c-0.015,4.558,3.673,8.276,8.171,8.24c4.446-0.037,8.021-3.749,8.015-8.32C409.978,21.213,406.368,17.658,401.84,17.649z"/>
	<path fill="#FFFFFF" d="M306.774,33.403c3.92,0,7.642,0,11.473,0c0-1.057-0.033-2.071,0.006-3.086
		c0.065-1.674,1.306-3.041,2.866-3.217c1.591-0.182,3.062,0.787,3.531,2.323c0.037,0.121,0.09,0.245,0.09,0.368
		c0.006,3.35,0.004,6.698,0.004,10.146c-0.379,0-0.69,0-1,0c-7.066,0-14.133-0.021-21.199,0.016
		c-1.759,0.009-3.152-0.588-3.993-2.124c-0.863-1.577-0.597-3.125,0.415-4.589c5.204-7.541,10.397-15.09,15.594-22.637
		c0.161-0.233,0.307-0.478,0.585-0.908c-0.489,0-0.815,0-1.142,0c-4.22,0-8.44,0.01-12.66-0.008c-1.648-0.006-3.05-1.142-3.245-2.56
		c-0.245-1.787,0.632-3.253,2.26-3.72c0.33-0.096,0.69-0.11,1.036-0.11c6.075-0.008,12.151,0.004,18.226-0.012
		c1.66-0.006,2.91,0.689,3.691,2.116c0.807,1.472,0.682,2.944-0.272,4.333c-5.049,7.339-10.097,14.676-15.145,22.015
		C307.555,32.246,307.22,32.746,306.774,33.403z"/>
	<path fill="#FFFFFF" d="M449.007,37.836c-7.525,4.589-15.413,1.784-19.329-3.284c-4.155-5.379-3.938-13.019,0.516-18.179
		c4.4-5.099,12.078-6.805,18.79-2.632c0.15-0.262,0.291-0.527,0.449-0.781c0.783-1.253,2.254-1.832,3.641-1.438
		c1.471,0.418,2.348,1.551,2.348,3.098c0.006,7.381,0.004,14.762,0.002,22.143c0,1.68-0.887,2.914-2.352,3.307
		c-1.523,0.404-3.012-0.305-3.826-1.822C449.173,38.106,449.089,37.974,449.007,37.836z M441.192,17.649
		c-4.537-0.006-8.22,3.556-8.225,7.951c-0.004,4.622,3.609,8.393,8.046,8.393c4.46,0,8.214-3.74,8.197-8.168
		C449.194,21.32,445.598,17.654,441.192,17.649z"/>
	<path fill="#FFFFFF" d="M340.307,40.133c-7.965,0-14.371-6.446-14.362-14.457c0.007-7.889,6.539-14.323,14.57-14.28
		c8.337,0.044,14.301,7.099,14.2,14.416C354.604,33.769,348.295,40.133,340.307,40.133z M332.233,25.666
		c0,4.558,3.594,8.289,8.017,8.326c4.446,0.036,8.188-3.663,8.229-8.141c0.041-4.452-3.606-8.193-7.996-8.203
		C335.892,17.64,332.236,21.193,332.233,25.666z"/>
	<path fill="#FFFFFF" d="M370.979,40.133c-7.919-0.003-14.254-6.423-14.248-14.439c0.006-7.986,6.468-14.314,14.613-14.306
		c7.699,0.006,14.135,6.53,14.118,14.311C385.443,33.772,379.06,40.136,370.979,40.133z M371.207,17.649
		c-4.559-0.004-8.263,3.599-8.265,8.038c-0.003,4.491,3.699,8.299,8.076,8.306c4.443,0.006,8.218-3.74,8.233-8.165
		C379.264,21.375,375.603,17.652,371.207,17.649z"/>
	<path fill="#FFFFFF" d="M424.724,21.597c0,5.05,0.001,10.102,0,15.153c0,2.022-1.291,3.38-3.21,3.383
		c-1.899,0.001-3.271-1.384-3.275-3.362c-0.007-10.102-0.009-20.203,0-30.306c0.003-2.035,1.364-3.376,3.35-3.363
		c1.879,0.014,3.135,1.346,3.136,3.342C424.725,11.494,424.724,16.545,424.724,21.597z"/>
</g>
<line fill="none" stroke="#FFFFFF" stroke-width="0.7563" stroke-miterlimit="10" x1="266.014" y1="7.562" x2="266.014" y2="44.078"/>
<line fill="none" stroke="#FFFFFF" stroke-width="0.7563" stroke-miterlimit="10" x1="487.444" y1="7.562" x2="487.444" y2="44.078"/>
<line fill="none" stroke="#FFFFFF" stroke-width="0.7563" stroke-miterlimit="10" x1="831.719" y1="7.562" x2="831.719" y2="44.078"/>
<g>
	<g>
		<path fill="#FFFFFF" d="M714.005,16.497c-0.883,0-1.671,0.617-1.671,1.564s0.788,1.58,1.671,1.58c0.845,0,1.699-0.632,1.699-1.58
			S714.891,16.497,714.005,16.497z"/>
		<path fill-rule="evenodd" clip-rule="evenodd" fill="#FFFFFF" d="M638.547,28.125h-6.725c0.27-1.931,1.544-3.636,3.678-3.636
			c1.992,0,2.977,1.564,3.047,3.27V28.125z M642.449,29.759v-0.483c0-2.231-0.436-4.294-1.938-5.866
			c-1.135-1.214-2.793-1.967-4.786-1.967c-4.885,0-8.126,3.404-8.126,8.317c0,5.109,3.045,8.394,8.197,8.394
			c1.696,0,3.9-0.328,5.502-1.045c0.392-0.167,0.52-0.329,0.52-0.561c0-0.091-0.027-0.233-0.058-0.395l-0.462-1.67
			c-0.071-0.261-0.225-0.4-0.463-0.4c-0.125,0-0.226,0.073-0.366,0.107c-1.206,0.448-2.639,0.786-4.013,0.786
			c-2.598,0-4.435-1.742-4.688-4.27h9.587C642.182,30.706,642.449,30.554,642.449,29.759z M626.377,36.94v-8.29
			c0-2.097-0.167-3.543-0.787-4.751c-0.687-1.284-2.201-2.457-4.588-2.457c-1.993,0-4.127,0.718-5.602,2.127
			c-0.757-1.242-2.161-2.127-4.17-2.127c-1.697,0-3.467,0.684-4.812,1.861l-0.028-0.814c-0.028-0.456-0.338-0.624-0.815-0.624
			h-2.133c-0.491,0-0.786,0.232-0.786,0.75V36.94c0,0.59,0.253,0.818,0.843,0.818h2.3c0.563,0,0.816-0.229,0.816-0.818V26.491
			c1.053-0.92,2.358-1.645,3.649-1.645c1.992,0,2.345,1.378,2.345,3.108v8.986c0,0.59,0.267,0.818,0.854,0.818h2.162
			c0.56,0,0.786-0.229,0.786-0.818v-5.475c0-0.465-0.056-4.843-0.127-5.139c1.025-0.82,2.457-1.481,3.706-1.481
			c1.993,0,2.457,1.348,2.457,3.108v8.986c0,0.59,0.253,0.818,0.854,0.818h2.288C626.139,37.759,626.377,37.53,626.377,36.94z
			 M600.944,36.94V22.615c0-0.582-0.296-0.75-0.799-0.75h-2.303c-0.52,0-0.855,0.195-0.855,0.75V36.94
			c0,0.59,0.266,0.818,0.855,0.818h2.303C600.692,37.759,600.944,37.53,600.944,36.94z M601.153,17.704
			c0-1.306-1.078-2.064-2.202-2.064c-1.136,0-2.231,0.792-2.231,2.098c0,1.312,1.151,2.035,2.231,2.035
			C600.047,19.773,601.153,18.988,601.153,17.704z M595.722,21.998c0-0.26-0.1-0.366-0.321-0.421
			c-0.296-0.07-0.661-0.135-0.928-0.135c-1.823,0-2.947,0.822-3.971,2.092l-0.031-1.045c0-0.456-0.294-0.624-0.812-0.624h-2.091
			c-0.491,0-0.828,0.168-0.828,0.82v4.024V36.94c0,0.546,0.266,0.818,0.786,0.818h2.398c0.547,0,0.773-0.292,0.773-0.818V26.519
			c0.828-0.982,2.036-1.567,3.158-1.567c0.294,0,0.617,0.03,0.884,0.085c0.378,0,0.549-0.125,0.59-0.419l0.365-2.331
			C595.722,22.195,595.722,22.097,595.722,21.998z M581.433,22.39c0,2.815-1.655,4.128-4.434,4.128l-1.937-0.027v-8.135h1.71
			C579.582,18.356,581.433,19.408,581.433,22.39z M585.688,22.229c0-1.776-0.604-3.439-1.643-4.652c-1.601-1.84-4.155-2.5-7.637-2.5
			h-4.743c-0.633,0-0.829,0.232-0.829,0.885v20.915c0,0.653,0.268,0.882,0.785,0.882h2.625c0.617,0,0.816-0.292,0.816-0.791v-7.271
			c0.237,0.034,1.71,0.097,1.963,0.097C581.855,29.794,585.688,27.303,585.688,22.229z"/>
		<path fill="#FFFFFF" d="M711.03,35.789c-0.069-0.225-0.224-0.331-0.394-0.331c-0.069,0-0.127,0-0.196,0.044
			c-0.533,0.153-1.304,0.386-2.061,0.386c-0.858,0-1.447-0.261-1.812-0.655c-0.492-0.553-0.55-1.401-0.55-2.49v-8.843h3.834
			c0.321,0,0.489-0.105,0.489-0.435v-1.109c0-0.356-0.168-0.427-0.463-0.427h-3.86v-4.029c0-0.365-0.167-0.589-0.492-0.589h-0.138
			l-1.602,0.225c-0.435,0.071-0.561,0.204-0.561,0.659v3.734h-1.869c-0.278,0-0.419,0.132-0.419,0.462v1.019
			c0,0.421,0.071,0.49,0.491,0.49h1.797v8.585c0,2.025,0.07,3.339,1.011,4.393c0.758,0.812,2.162,1.207,3.579,1.207
			c1.123,0,2.303-0.26,3.046-0.598c0.267-0.084,0.463-0.253,0.463-0.519c0-0.027-0.041-0.062-0.041-0.133L711.03,35.789z"/>
		<path fill="#FFFFFF" d="M700.25,35.789h-0.224c-0.268,0-0.422-0.064-0.562-0.287c-0.126-0.206-0.156-0.725-0.156-1.475V22.552
			c0-0.427-0.194-0.625-0.588-0.625h-1.488c-0.351,0-0.618,0.169-0.618,0.561l-0.027,1.081c-0.981-1.306-2.749-1.992-4.395-1.992
			c-3.732,0-6.974,3.08-6.974,8.548c0,4.125,1.992,7.959,6.513,7.959c2.007,0,4.169-1.306,4.981-2.751
			c0,1.312,0.69,2.426,2.134,2.426h1.376c0.324,0,0.491-0.103,0.491-0.434v-1.109C700.713,35.858,700.546,35.789,700.25,35.789z
			 M696.517,32.453c-0.589,1.629-2.259,3.309-4.352,3.309c-2.358,0-4.029-2.226-4.029-5.833c0-3.902,1.896-6.135,4.423-6.135
			c1.558,0,3.172,0.885,3.958,2.364V32.453z"/>
		<path fill="#FFFFFF" d="M664.78,21.577c-4.884,0-7.537,3.593-7.537,8.217c0,4.688,2.261,8.29,7.341,8.29
			c4.885,0,7.567-3.635,7.567-8.253C672.151,25.079,669.862,21.577,664.78,21.577z M664.611,35.928c-3.479,0-4.49-3.186-4.49-6.196
			c0-2.883,1.08-6,4.633-6c3.396,0,4.519,3.081,4.519,6.127S668.051,35.928,664.611,35.928z"/>
		<path fill="#FFFFFF" d="M685.119,35.43c-0.055-0.225-0.153-0.327-0.321-0.327c-0.069,0-0.169,0.034-0.27,0.068
			c-1.038,0.456-2.258,0.778-3.661,0.778c-3.51,0-4.956-2.882-4.956-6.218c0-3.678,1.967-6,5.081-6c1.278,0,2.389,0.365,3.413,0.82
			c0.098,0.065,0.224,0.105,0.294,0.105c0.198,0,0.295-0.168,0.365-0.4l0.252-1.052c0.043-0.09,0.069-0.16,0.069-0.252
			c0-0.196-0.097-0.338-0.321-0.428c-1.153-0.597-2.794-0.947-4.197-0.947c-4.912,0-7.831,3.459-7.831,8.281
			c0,4.885,2.482,8.226,7.635,8.226c1.501,0,3.017-0.297,4.421-0.947c0.294-0.136,0.392-0.231,0.392-0.429
			c0-0.098-0.04-0.23-0.069-0.366L685.119,35.43z"/>
		<path fill="#FFFFFF" d="M656.57,35.333h-8.226V15.872c0-0.492-0.195-0.689-0.659-0.689h-1.769c-0.421,0-0.619,0.26-0.619,0.689
			v21.167c0,0.521,0.24,0.721,0.661,0.721h10.682c0.393,0,0.547-0.13,0.547-0.559v-1.342
			C657.187,35.458,657.033,35.333,656.57,35.333z"/>
		<path fill="#FFFFFF" d="M724.266,21.577c-4.871,0-7.522,3.593-7.522,8.217c0,4.688,2.258,8.29,7.34,8.29
			c4.886,0,7.564-3.635,7.564-8.253C731.648,25.079,729.347,21.577,724.266,21.577z M724.112,35.928
			c-3.479,0-4.491-3.186-4.491-6.196c0-2.883,1.081-6,4.619-6c3.41,0,4.519,3.081,4.519,6.127S727.549,35.928,724.112,35.928z"/>
		<path fill="#FFFFFF" d="M741.094,21.577c-1.907,0-3.873,0.687-5.375,1.957l-0.042-1.009c0-0.427-0.226-0.597-0.615-0.597h-1.435
			c-0.462,0-0.631,0.198-0.631,0.66v14.52c0,0.423,0.239,0.651,0.631,0.651h1.531c0.434,0,0.631-0.229,0.631-0.686V25.801
			c1.137-1.052,3.003-1.902,4.52-1.902c2.625,0,3.201,1.672,3.201,4v9.174c0,0.457,0.197,0.686,0.631,0.686h1.546
			c0.446,0,0.616-0.229,0.616-0.686v-9.642C746.303,23.864,744.857,21.577,741.094,21.577z"/>
		<path fill="#FFFFFF" d="M714.792,21.928h-1.501c-0.435,0-0.66,0.198-0.66,0.66v14.485c0,0.457,0.226,0.686,0.66,0.686h1.501
			c0.423,0,0.631-0.229,0.631-0.686V22.588C715.422,22.125,715.214,21.928,714.792,21.928z"/>
		<path fill="#FFFFFF" d="M749.447,35.149c-0.73,0-1.306,0.592-1.306,1.307c0,0.729,0.575,1.311,1.306,1.311
			c0.716,0,1.292-0.582,1.292-1.311C750.739,35.741,750.163,35.149,749.447,35.149z"/>
		<path fill="#FFFFFF" d="M763.33,35.43c-0.07-0.232-0.169-0.337-0.339-0.337c-0.055,0-0.168,0.035-0.253,0.07
			c-1.052,0.464-2.272,0.786-3.674,0.786c-3.525,0-4.957-2.892-4.957-6.231c0-3.677,1.966-6.008,5.08-6.008
			c1.278,0,2.402,0.359,3.411,0.815c0.099,0.069,0.225,0.112,0.295,0.112c0.197,0,0.297-0.175,0.366-0.407l0.268-1.046
			c0.027-0.098,0.068-0.161,0.068-0.266c0-0.198-0.097-0.324-0.336-0.429c-1.152-0.582-2.794-0.946-4.195-0.946
			c-4.931,0-7.85,3.479-7.85,8.302c0,4.898,2.5,8.239,7.651,8.239c1.501,0,3.003-0.297,4.42-0.947
			c0.31-0.136,0.395-0.231,0.395-0.429c0-0.098-0.029-0.237-0.055-0.366L763.33,35.43z"/>
		<path fill="#FFFFFF" d="M771.23,21.542c-4.884,0-7.55,3.614-7.55,8.24c0,4.693,2.26,8.302,7.355,8.302
			c4.883,0,7.578-3.644,7.578-8.268C778.614,25.051,776.327,21.542,771.23,21.542z M771.063,35.923
			c-3.466,0-4.491-3.188-4.491-6.205c0-2.892,1.081-6.008,4.632-6.008c3.41,0,4.52,3.083,4.52,6.135
			C775.723,32.892,774.514,35.923,771.063,35.923z"/>
		<path fill="#FFFFFF" d="M798.378,21.584c-1.896,0-3.875,0.679-5.378,1.958l-0.448,0.435c-0.771-1.523-2.203-2.393-4.547-2.393
			c-1.909,0-3.875,0.679-5.374,1.958l-0.045-1.018c0-0.427-0.225-0.59-0.617-0.59h-1.445c-0.465,0-0.618,0.197-0.618,0.66v14.542
			c0,0.422,0.224,0.65,0.618,0.65h1.543c0.423,0,0.616-0.229,0.616-0.68V25.815c1.152-1.06,3.02-1.908,4.534-1.908
			c2.626,0,3.214,1.67,3.214,4v9.2c0,0.451,0.196,0.68,0.618,0.68h1.544c0.464,0,0.634-0.229,0.634-0.68V27.45
			c0-0.595-0.044-1.156-0.128-1.676c1.152-1.033,3.004-1.867,4.492-1.867c2.625,0,3.216,1.67,3.216,4v9.2
			c0,0.451,0.194,0.68,0.631,0.68h1.542c0.45,0,0.618-0.229,0.618-0.68V27.45C803.598,23.872,802.153,21.584,798.378,21.584z"/>
		<g>
			<path fill="#FFFFFF" d="M566.106,26.434c0-12.886-10.442-23.321-23.312-23.321c-12.887,0-23.33,10.436-23.33,23.321
				c0,5.22,1.713,10.022,4.604,13.91c0.672,0.78,0.871-0.05,0.898-0.582V26.434c0-4.926,1.992-9.363,5.222-12.598
				c3.228-3.222,7.663-5.221,12.605-5.221c4.925,0,9.361,2,12.59,5.221c3.228,3.235,5.208,7.672,5.208,12.598
				c0,4.925-1.98,9.362-5.208,12.591c-0.271,0.27-0.55,0.529-0.834,0.781c-0.028,0.022-0.055,0.044-0.08,0.069
				c-0.877,0.763-1.821,1.435-2.834,2.02l0.006,0.005c-2.615,1.51-5.646,2.379-8.891,2.379c-2.57,0-5.012-0.547-7.216-1.513
				c-0.294-0.169-0.324-0.5-0.324-0.5l0.015-4.652c0.016-0.152,0.155-0.352,0.408-0.217l0.027,0.006
				c2.035,1.326,4.478,2.105,7.09,2.112c7.199-0.007,13.038-5.845,13.038-13.046s-5.839-13.041-13.038-13.041
				c-7.201,0-13.04,5.84-13.04,13.057v18.513c0.057,0.623,0.408,1.082,0.729,1.278c0.014,0.006,0.028,0.014,0.043,0.025
				c3.564,2.212,7.761,3.483,12.268,3.483c6.667,0,12.674-2.78,16.928-7.267l-0.008-0.004
				C563.661,38.331,566.106,32.67,566.106,26.434z M542.75,18.931c4.154,0.014,7.523,3.375,7.536,7.538
				c-0.013,4.162-3.382,7.517-7.536,7.523c-4.155-0.007-7.525-3.361-7.525-7.523S538.595,18.945,542.75,18.931z"/>
		</g>
	</g>
</g>
<g>
	<g>
		<g>
			<g>
				<path fill-rule="evenodd" clip-rule="evenodd" fill="#FFFFFF" d="M882.5,56.708c-2.696-3.665-5.252-7.259-7.945-10.752
					c-1.453-1.886-3.021-3.716-4.733-5.369c-5.784-5.58-7.663-13.804-4.685-21.064c3.025-7.373,9.985-11.945,18.016-11.835
					c7.768,0.107,14.861,5.256,17.449,12.667c2.593,7.421,0.251,15.846-5.68,20.826c-1.317,1.107-2.513,2.409-3.565,3.773
					c-2.671,3.461-5.227,7.01-7.835,10.518C883.237,55.854,882.914,56.208,882.5,56.708z M882.843,13.033
					c-7.578-0.041-13.726,5.901-13.764,13.304c-0.041,7.81,5.996,13.993,13.649,13.984c7.398-0.007,13.613-6.174,13.649-13.544
					C896.417,19.202,890.382,13.073,882.843,13.033z"/>
			</g>
		</g>
		<g>
			<path fill-rule="evenodd" clip-rule="evenodd" fill="#FFFFFF" d="M983.579,32.873c1.692-5.804,3.383-11.607,5.079-17.409
				c0.308-1.052,0.557-2.145,1.95-2.328c1.66-0.22,2.638,0.413,2.973,2.266c0.886,4.891,1.698,9.794,2.529,14.693
				c0.384,2.262,0.754,4.526,1.119,6.79c0.161,1.003,0.06,1.924-1.165,2.12c-1.211,0.193-1.769-0.418-1.939-1.631
				c-0.816-5.843-1.686-11.678-2.541-17.516c-0.102-0.697-0.232-1.39-0.622-2.134c-0.347,1.098-0.71,2.191-1.036,3.295
				c-1.577,5.337-3.138,10.681-4.724,16.017c-0.275,0.927-0.455,1.967-1.791,2.001c-1.455,0.034-1.606-1.107-1.896-2.073
				c-1.785-5.963-3.539-11.935-5.312-17.902c-0.135-0.451-0.317-0.887-0.732-1.309c-0.665,4.578-1.328,9.158-1.998,13.735
				c-0.294,1.999-0.639,3.991-0.89,5.994c-0.146,1.164-0.738,1.659-1.864,1.535c-1.216-0.135-1.315-1.068-1.188-1.958
				c0.414-2.864,0.895-5.72,1.374-8.574c0.735-4.362,1.494-8.719,2.237-13.08c0.24-1.418,0.959-2.278,2.492-2.309
				c1.522-0.031,2.049,0.942,2.409,2.201c1.521,5.299,3.072,10.592,4.616,15.883c0.166,0.563,0.363,1.114,0.546,1.673
				C983.33,32.86,983.455,32.867,983.579,32.873z"/>
		</g>
		<g>
			<g>
				<path fill-rule="evenodd" clip-rule="evenodd" fill="#FFFFFF" d="M1011.49,36.325c-2.013,2.287-4.283,3.174-7.036,2.543
					c-3.602-0.827-6.009-3.715-6.526-8.101c-0.401-3.398,0.325-6.55,2.821-9.063c2.512-2.528,7.226-3.163,10.056-0.271
					c0.142,0.146,0.337,0.24,0.657,0.463c0.059-0.443-0.006-0.819,0.155-1.013c0.404-0.493,0.873-1.192,1.382-1.255
					c0.418-0.051,1.029,0.625,1.373,1.109c0.214,0.303,0.112,0.846,0.113,1.281c0.004,4.865,0.01,9.728-0.006,14.592
					c-0.002,0.536,0.028,1.188-0.249,1.577c-0.292,0.408-0.967,0.816-1.422,0.764c-0.436-0.053-0.895-0.638-1.174-1.094
					C1011.443,37.546,1011.542,37.055,1011.49,36.325z M1000.709,29.336c0.418,1.474,0.684,2.93,1.243,4.263
					c0.766,1.82,2.293,2.763,4.276,2.763c1.907,0,3.373-0.896,4.223-2.606c1.452-2.92,1.448-5.918,0.045-8.836
					c-0.809-1.68-2.214-2.651-4.184-2.659c-2.013-0.007-3.54,0.865-4.323,2.668C1001.393,26.3,1001.136,27.819,1000.709,29.336z"/>
			</g>
		</g>
		<g>
			<path fill-rule="evenodd" clip-rule="evenodd" fill="#FFFFFF" d="M938.218,21.863c1.96-1.729,3.918-2.635,6.301-2.224
				c3.425,0.594,5.546,2.921,5.615,6.406c0.075,3.714,0.013,7.432,0.023,11.148c0.002,1.083-0.359,1.842-1.573,1.826
				c-1.23-0.019-1.537-0.873-1.542-1.896c-0.016-3.443,0.044-6.889-0.031-10.328c-0.062-2.91-1.921-4.634-4.68-4.514
				c-2.162,0.093-3.855,1.464-4.016,3.772c-0.232,3.315-0.141,6.655-0.19,9.986c-0.01,0.598,0.15,1.302-0.106,1.772
				c-0.281,0.517-0.961,1.138-1.455,1.125c-0.487-0.012-1.013-0.71-1.408-1.198c-0.166-0.199-0.043-0.634-0.043-0.962
				c-0.002-7.76-0.002-15.522-0.002-23.283c0-0.218,0.006-0.438,0.002-0.656c-0.023-1.053,0.419-1.656,1.542-1.647
				c1.062,0.009,1.447,0.642,1.455,1.583c0.02,2.349,0.007,4.7,0.019,7.05C938.133,20.401,938.179,20.978,938.218,21.863z"/>
		</g>
		<g>
			<path fill-rule="evenodd" clip-rule="evenodd" fill="#FFFFFF" d="M1030.899,29.938c0,2.261,0.01,4.202-0.004,6.144
				c-0.005,0.599,0.113,1.308-0.162,1.767c-0.307,0.512-1.007,1.113-1.509,1.09c-0.509-0.025-1.037-0.722-1.448-1.213
				c-0.167-0.199-0.062-0.635-0.062-0.961c-0.003-7.771-0.003-15.536,0-23.304c0-1.067-0.034-2.197,1.471-2.255
				c1.576-0.062,1.705,1.071,1.708,2.228c0.014,3.61,0.004,7.221,0.01,10.832c0.002,0.521,0.048,1.04,0.09,1.891
				c2.062-1.72,3.886-3.247,5.719-4.768c0.588-0.489,1.121-1.141,1.801-1.396c0.598-0.226,1.362-0.001,2.054,0.024
				c-0.125,0.734,0.012,1.76-0.421,2.149c-1.866,1.681-3.9,3.172-5.871,4.736c-0.38,0.303-0.751,0.619-1.575,1.298
				c1.419,1.256,2.779,2.399,4.074,3.615c1.475,1.385,2.894,2.828,4.329,4.255c0.745,0.738,1.394,1.641,0.482,2.551
				c-0.968,0.966-1.91,0.303-2.684-0.496c-2.394-2.477-4.775-4.967-7.165-7.447C1031.561,30.495,1031.36,30.342,1030.899,29.938z"/>
		</g>
		<g>
			<g>
				<path fill-rule="evenodd" clip-rule="evenodd" fill="#FFFFFF" d="M954.863,30.498c-0.223,4.341,3.628,6.942,7.934,5.468
					c1.007-0.349,1.855-1.141,2.85-1.548c0.6-0.244,1.34-0.138,2.016-0.189c-0.126,0.737,0.015,1.753-0.419,2.174
					c-3.688,3.572-12.569,4.457-15.041-3.108c-0.894-2.735-0.889-5.477,0.142-8.182c1.402-3.68,4.852-5.962,8.361-5.569
					c3.964,0.443,6.961,3.433,7.5,7.485c0.058,0.434,0.096,0.868,0.108,1.307c0.055,1.768-0.287,2.151-2.034,2.161
					c-3.277,0.016-6.553,0.003-9.83,0.003C955.916,30.498,955.382,30.498,954.863,30.498z M954.93,28.178
					c0.624,0,1.271,0.003,1.914,0c2.512-0.004,5.023,0.024,7.533-0.062c0.267-0.009,0.749-0.707,0.724-1.058
					c-0.214-3.095-2.721-5.093-5.865-4.767C956.507,22.573,954.619,25.062,954.93,28.178z"/>
			</g>
		</g>
		<g>
			<g>
				<path fill-rule="evenodd" clip-rule="evenodd" fill="#FFFFFF" d="M1044.674,30.498c0.122,2.285,0.847,4.05,2.733,5.1
					c2.25,1.252,4.532,0.944,6.735-0.197c0.624-0.322,1.123-0.91,1.762-1.179c0.477-0.201,1.438-0.286,1.563-0.068
					c0.271,0.473,0.191,1.176,0.152,1.779c-0.014,0.221-0.296,0.449-0.498,0.629c-3.934,3.5-12.997,4.277-15.134-3.933
					c-0.83-3.191-0.576-6.3,1.158-9.171c1.868-3.085,5.177-4.466,8.731-3.72c3.176,0.664,5.77,3.631,6.283,7.195
					c0.055,0.38,0.081,0.762,0.118,1.143c0.2,1.977-0.194,2.418-2.221,2.422C1052.299,30.504,1048.54,30.498,1044.674,30.498z
					 M1055.151,28.073c-0.247-3.932-2.315-5.991-5.604-5.805c-2.927,0.166-4.878,2.531-4.694,5.805
					C1048.25,28.073,1051.653,28.073,1055.151,28.073z"/>
			</g>
		</g>
		<g>
			<path fill-rule="evenodd" clip-rule="evenodd" fill="#FFFFFF" d="M907.084,21.868c1.881-1.737,3.81-2.61,6.137-2.254
				c3.437,0.527,5.633,2.855,5.725,6.312c0.098,3.769,0.019,7.541,0.029,11.312c0.002,1.006-0.338,1.732-1.453,1.782
				c-1.213,0.053-1.646-0.725-1.656-1.776c-0.027-3.499,0.039-6.997-0.039-10.494c-0.065-2.891-1.956-4.606-4.722-4.466
				c-2.295,0.117-3.941,1.688-4.086,4.296c-0.163,2.944-0.062,5.9-0.076,8.851c-0.001,0.603-0.001,1.201-0.005,1.805
				c-0.007,1.068-0.374,1.844-1.605,1.784c-1.132-0.056-1.417-0.79-1.411-1.8c0.021-3.224,0.007-6.448,0.007-9.673
				c-0.002-1.858,0.002-3.716-0.002-5.575c-0.002-1.045-0.159-2.217,1.307-2.4C906.66,19.395,906.911,20.465,907.084,21.868z"/>
		</g>
		<g>
			<path fill-rule="evenodd" clip-rule="evenodd" fill="#FFFFFF" d="M927.504,16.17c0,0.793,0,1.378,0,1.962
				c0,5.957,0,11.913,0,17.869c0,0.382,0,0.765,0,1.148c0,1.056-0.347,1.854-1.555,1.869c-1.229,0.015-1.559-0.803-1.56-1.852
				c-0.002-4.808-0.002-9.616-0.002-14.424c0-2.118,0-4.235,0-6.577c-1.653,0-3.113,0.004-4.575-0.001
				c-0.978-0.004-1.771-0.279-1.737-1.457c0.032-1.149,0.83-1.434,1.799-1.435c4.043-0.007,8.087-0.011,12.129,0.001
				c0.948,0.002,1.752,0.225,1.774,1.429c0.025,1.334-0.862,1.466-1.868,1.467C930.502,16.17,929.095,16.17,927.504,16.17z"/>
		</g>
		<g>
			<path fill-rule="evenodd" clip-rule="evenodd" fill="#FFFFFF" d="M1064.306,19.674c0.654,0.043,1.214-0.072,1.586,0.142
				c0.481,0.278,1.104,0.805,1.123,1.25c0.018,0.42-0.681,1.254-1.038,1.241c-1.581-0.059-1.708,0.76-1.689,2.028
				c0.06,4.146,0.019,8.294,0.023,12.44c0.003,1.099-0.062,2.202-1.507,2.235c-1.561,0.036-1.62-1.112-1.616-2.278
				c0.011-4.687,0.004-9.372,0.004-14.022c-1.018-0.649-3.099,0.25-2.749-1.779c0.113-0.657,1.503-1.093,2.309-1.631
				c0.147,0.124,0.295,0.246,0.442,0.369c0-1.294,0.007-2.589-0.004-3.886c-0.006-1.088,0.429-1.838,1.597-1.828
				c1.088,0.011,1.501,0.76,1.515,1.754C1064.32,17.003,1064.306,18.3,1064.306,19.674z"/>
		</g>
		<g>
			<path fill-rule="evenodd" clip-rule="evenodd" fill="#FFFFFF" d="M1020.241,22.083c1.265-0.856,2.354-1.746,3.579-2.374
				c0.992-0.509,2.04-0.177,2.407,0.949c0.387,1.195-0.417,1.759-1.489,2.094c-3.551,1.104-4.546,2.475-4.554,6.164
				c-0.003,2.622,0.007,5.246-0.005,7.869c-0.005,1.07-0.019,2.201-1.51,2.233c-1.479,0.028-1.577-1.042-1.577-2.151
				c0.004-5.137,0.011-10.273,0-15.409c-0.002-1.068,0.351-1.896,1.522-1.904c1.159-0.006,1.576,0.795,1.568,1.874
				C1020.181,21.682,1020.227,21.939,1020.241,22.083z"/>
		</g>
		<g>
			<path fill-rule="evenodd" clip-rule="evenodd" fill="#FFFFFF" d="M882.717,36.164c-5.287,0.024-9.627-4.299-9.598-9.558
				c0.029-5.225,4.268-9.468,9.492-9.503c5.32-0.036,9.596,4.155,9.678,9.482C892.368,31.795,888.029,36.139,882.717,36.164z"/>
		</g>
	</g>
</g>
</svg>
